<svg width="64" height="64" viewBox="0 0 64 64" fill="none" xmlns="http://www.w3.org/2000/svg">
  <defs>
    <linearGradient id="mainGradient" x1="0%" y1="0%" x2="100%" y2="100%">
      <stop offset="0%" style="stop-color:#00D4FF;stop-opacity:1" />
      <stop offset="30%" style="stop-color:#3B82F6;stop-opacity:1" />
      <stop offset="70%" style="stop-color:#1D4ED8;stop-opacity:1" />
      <stop offset="100%" style="stop-color:#7C3AED;stop-opacity:1" />
    </linearGradient>
    <linearGradient id="shadowGradient" x1="0%" y1="0%" x2="100%" y2="100%">
      <stop offset="0%" style="stop-color:#1E40AF;stop-opacity:0.8" />
      <stop offset="100%" style="stop-color:#581C87;stop-opacity:0.8" />
    </linearGradient>
  </defs>
  
  <!-- 3D P Shape - Main face -->
  <path d="M8 4 L8 60 L16 60 L16 36 L36 36 C46 36 52 30 52 20 C52 10 46 4 36 4 L16 4 L16 4 Z M16 12 L36 12 C40 12 44 14 44 20 C44 26 40 28 36 28 L16 28 Z" fill="url(#mainGradient)"/>
  
  <!-- 3D depth effect -->
  <path d="M12 8 L12 56 L20 52 L20 32 L40 32 C48 32 52 28 52 20 C52 12 48 8 40 8 L20 8 Z M20 16 L40 16 C42 16 44 18 44 20 C44 22 42 24 40 24 L20 24 Z" fill="url(#shadowGradient)" opacity="0.6"/>
  
  <!-- Accent dots for visual interest -->
  <circle cx="56" cy="12" r="3" fill="#FF6B35"/>
  <circle cx="4" cy="52" r="2" fill="#00D4FF"/>
  <circle cx="60" cy="48" r="2" fill="#7C3AED"/>
</svg>